<svg width="32" height="32" viewBox="0 0 32 32" fill="none" xmlns="http://www.w3.org/2000/svg">
<path d="M17.16 24.56C18.0133 24.56 18.7867 24.5067 19.48 24.4C20.2 24.2667 20.8533 24.1067 21.44 23.92V21.68C20.8533 21.8933 20.2 22.0533 19.48 22.16C18.7867 22.2667 18.04 22.32 17.24 22.32C13.32 22.32 11.36 20.0933 11.36 15.64C11.36 13.48 11.8667 11.8133 12.88 10.64C13.8933 9.46667 15.28 8.88 17.04 8.88C17.7867 8.88 18.4933 8.96 19.16 9.12C19.8533 9.25333 20.5067 9.46667 21.12 9.76L22.12 7.72C21.4 7.34667 20.6133 7.08 19.76 6.92C18.9333 6.73333 18.04 6.64 17.08 6.64C14.4133 6.64 12.3067 7.44 10.76 9.04C9.21333 10.6133 8.44 12.8 8.44 15.6C8.44 18.3733 9.14667 20.56 10.56 22.16C11.9733 23.76 14.1733 24.56 17.16 24.56ZM4.32 31.24C1.76 31.24 0.48 29.96 0.48 27.4V4.04C0.48 1.48 1.76 0.199997 4.32 0.199997H27.68C30.24 0.199997 31.52 1.48 31.52 4.04V27.4C31.52 29.96 30.24 31.24 27.68 31.24H4.32Z" fill="black"/>
</svg>
