<?xml version="1.0" encoding="UTF-8" standalone="no"?>
<!-- Created with Inkscape (http://www.inkscape.org/) -->

<svg
   xmlns:dc="http://purl.org/dc/elements/1.1/"
   xmlns:cc="http://creativecommons.org/ns#"
   xmlns:rdf="http://www.w3.org/1999/02/22-rdf-syntax-ns#"
   xmlns:svg="http://www.w3.org/2000/svg"
   xmlns="http://www.w3.org/2000/svg"
   xmlns:sodipodi="http://sodipodi.sourceforge.net/DTD/sodipodi-0.dtd"
   xmlns:inkscape="http://www.inkscape.org/namespaces/inkscape"
   width="147.48752mm"
   height="92.179688mm"
   viewBox="0 0 147.48752 92.179688"
   version="1.1"
   id="svg158"
   inkscape:version="0.92.4 (5da689c313, 2019-01-14)"
   sodipodi:docname="pasticker1996.svg"
   inkscape:export-filename="C:\Users\tjdru\OneDrive\Pictures\Logos\Music\palsticker1996.png"
   inkscape:export-xdpi="172.21796"
   inkscape:export-ydpi="172.21796">
  <defs
     id="defs152" />
  <sodipodi:namedview
     id="base"
     pagecolor="#ffffff"
     bordercolor="#666666"
     borderopacity="1.0"
     inkscape:pageopacity="0.0"
     inkscape:pageshadow="2"
     inkscape:zoom="0.98994949"
     inkscape:cx="474.91928"
     inkscape:cy="138.06526"
     inkscape:document-units="mm"
     inkscape:current-layer="g111"
     showgrid="false"
     inkscape:snap-global="false"
     inkscape:window-width="1366"
     inkscape:window-height="705"
     inkscape:window-x="-8"
     inkscape:window-y="-8"
     inkscape:window-maximized="1" />
  <metadata
     id="metadata155">
    <rdf:RDF>
      <cc:Work
         rdf:about="">
        <dc:format>image/svg+xml</dc:format>
        <dc:type
           rdf:resource="http://purl.org/dc/dcmitype/StillImage" />
        <dc:title />
      </cc:Work>
    </rdf:RDF>
  </metadata>
  <g
     inkscape:groupmode="layer"
     id="layer2"
     inkscape:label="Layer 2"
     style="opacity:1">
    <g
       id="g111">
      <path
         style="opacity:1;fill:#000000;fill-opacity:1;stroke:none;stroke-width:4.34271097;stroke-linecap:round;stroke-linejoin:round;stroke-miterlimit:4;stroke-dasharray:none;stroke-opacity:1;paint-order:stroke markers fill"
         d="m -1e-6,9.9999997e-6 H 147.48752 V 92.179682 H -10e-7 Z"
         id="rect54" />
      <path
         style="opacity:1;fill:#ffffff;fill-opacity:1;stroke:none;stroke-width:3.37735105;stroke-linecap:round;stroke-linejoin:round;stroke-miterlimit:4;stroke-dasharray:none;stroke-opacity:1;paint-order:stroke markers fill"
         d="M 6.6666672e-8,25.708828 H 147.48752 v 37.8867 H 6.6666672e-8 Z"
         id="rect56" />
      <g
         id="g95"
         style="display:inline">
        <g
           aria-label="ADVISORY"
           transform="scale(0.93158661,1.0734375)"
           style="font-style:normal;font-variant:normal;font-weight:bold;font-stretch:normal;font-size:41.03115463px;line-height:0.25;font-family:'Garage Gothic';-inkscape-font-specification:'Garage Gothic Bold';text-align:start;letter-spacing:0px;word-spacing:0px;text-anchor:start;fill:#000000;fill-opacity:1;stroke:none;stroke-width:3.07733631"
           id="text61">
          <path
             id="path77"
             style="stroke-width:3.08686686"
             d="m 142.54701,45.77861 c 0,3.6767 -0.041,6.237997 -0.041,9.584207 0,0.495736 1.51721,0.454424 2.17331,0.454424 0.53307,0 2.25531,0.04131 2.25531,-0.33049 0,-3.470144 0,-6.32062 0,-9.832075 0,-0.743602 0.16403,-1.817694 0.24603,-2.189495 0.12302,-0.66098 0.24604,-1.569828 0.45107,-2.437363 1.14817,-4.874726 1.92727,-8.634049 2.95242,-13.508776 0.12301,-0.537046 -0.90213,-0.578357 -2.00928,-0.578357 -1.06615,0 -2.21432,0.123934 -2.29633,0.66098 -0.49207,3.718012 -0.77911,6.444554 -1.31218,10.121254 0,0.123933 -0.041,0.413112 -0.20504,0.413112 -0.16402,0 -0.24602,-0.247868 -0.24602,-0.371801 -0.45107,-3.346211 -0.90213,-6.568487 -1.3942,-10.162565 -0.0821,-0.619669 -1.23018,-0.66098 -2.50136,-0.66098 -0.69709,0 -1.96828,0.04131 -1.84526,0.578357 1.02514,4.833416 1.96828,8.923228 3.07544,13.756643 0.20503,0.908847 0.49207,1.941628 0.57408,2.478674 0.0821,0.454423 0.12301,1.280649 0.12301,2.024251 z m -11.065,9.377651 c 0,-3.676701 0,-6.568487 0,-10.410432 0,-1.156715 -0.20502,-1.859006 -0.73811,-2.602609 -0.7791,-1.032781 -2.09129,-1.115402 -2.09129,-1.280648 0,-0.123934 1.27118,-0.371801 2.00928,-1.487204 0.53307,-0.743602 0.6971,-1.528516 0.6971,-2.726542 0,-1.528515 0,-1.900316 0,-3.511456 0,-1.735071 -0.45106,-3.387521 -1.68124,-4.544235 -1.23016,-1.198026 -3.03442,-1.693761 -4.79767,-1.693761 -1.10716,0 -3.11644,0 -4.05958,0 -0.53307,0 -0.82011,-0.08262 -1.06615,0.247868 -0.12302,0.206556 -0.16402,0.619668 -0.16402,1.032781 0,7.973069 0,18.548745 0,26.72837 0,0.908848 0.32805,0.908848 2.00928,0.908848 2.05029,0 2.37834,0 2.37834,-0.784914 0,-4.585548 0,-7.188155 0,-11.484525 0,-0.578357 0.16403,-0.537045 1.59923,-0.537045 1.02514,0 1.51721,1.156715 1.51721,2.602607 0,1.900318 0,6.155376 0,9.501586 0,0.743603 0.16402,0.702291 2.1323,0.702291 1.96827,0 2.25532,0 2.25532,-0.66098 z m -4.51063,-21.151354 c 0,0.950158 0,1.776383 0,2.809164 0,0.413113 -0.041,1.032781 -0.57409,1.611138 -0.45106,0.495735 -1.10716,0.619669 -1.4762,0.619669 -0.32805,0 -0.57409,0.04131 -0.73811,-0.08262 -0.20503,-0.165245 -0.20503,-0.454423 -0.20503,-0.826225 0,-2.313429 0,-2.313429 0,-6.155375 0,-0.206557 0.041,-0.3718 0.12301,-0.537046 0.16403,-0.206556 0.45107,-0.206556 0.82013,-0.206556 0.94312,0 1.18916,0.165245 1.4762,0.495735 0.53307,0.619669 0.57409,1.404581 0.57409,2.272118 z M 111.1198,49.868422 c 0,-6.155374 0,-10.988789 0,-17.061542 0,-3.594076 -2.46034,-5.907506 -5.98684,-5.907506 -3.40349,0 -5.945844,2.31343 -5.945844,5.907506 0,6.155376 0,10.864857 0,17.061542 0,3.387522 2.173304,5.948819 5.945844,5.948819 3.97756,0 5.98684,-2.478675 5.98684,-5.948819 z m -4.42862,-16.235317 c 0,5.329151 0,9.956009 0,15.326471 0,1.156714 -0.12302,2.478673 -1.55822,2.478673 -1.51722,0 -1.55823,-1.321959 -1.55823,-2.478673 0,-5.370462 0,-9.99732 0,-15.326471 0,-1.156714 0.32805,-2.478674 1.55823,-2.478674 1.18916,0 1.55822,1.32196 1.55822,2.478674 z m -27.514303,-0.04131 c 0,6.196686 7.750093,11.195346 7.750093,14.789424 0,0.578358 -0.041,1.198026 -0.08201,1.900317 -0.08201,0.702291 -0.369051,1.528515 -1.476208,1.528515 -1.230174,0 -1.517214,-0.908847 -1.517214,-2.437363 0,-0.413111 0,-1.198025 0,-1.735072 0,-0.330489 -0.77911,-0.330489 -2.419342,-0.330489 -1.640231,0 -2.009284,0.04131 -2.009284,0.413112 0,0.537046 0,1.859006 0,2.31343 0,3.759323 2.583366,5.783573 5.94584,5.783573 2.952417,0 3.895551,-0.908848 5.289746,-3.428832 0.49207,-0.908849 0.656093,-2.478675 0.656093,-3.718013 0,-6.733732 -7.832105,-10.079941 -7.832105,-14.954667 0,-0.537047 0.041,-1.032781 0.123017,-1.65245 0.08201,-0.66098 0.656093,-1.32196 1.394198,-1.32196 0.697097,0 1.476208,0.702291 1.476208,1.859005 0,0.371802 0,1.363272 0,1.900319 0,0.289178 0.820115,0.289178 2.378335,0.289178 1.394197,0 1.968277,0.04131 1.968277,-0.247868 0,-0.702291 0,-1.404583 0,-2.024251 0,-3.01572 -2.337328,-5.618328 -5.82282,-5.618328 -2.788395,0 -4.264604,1.735072 -4.797678,2.685231 -0.533075,0.950158 -1.025144,2.850475 -1.025144,4.007189 z M 71.150394,55.11495 c 0,-10.493055 0,-20.820864 0,-27.471974 0,-0.66098 -0.123017,-0.702291 -2.296324,-0.702291 -1.927272,0 -2.091295,0.04131 -2.091295,0.66098 0,9.914698 0,17.226787 0,27.595908 0,0.578356 0.082,0.578356 2.091295,0.578356 2.255319,0 2.296324,-0.04131 2.296324,-0.660979 z M 54.620926,27.642976 c -0.451064,3.800634 -1.06615,12.641239 -1.640232,17.309409 0,0.206556 -0.041,0.413112 -0.205029,0.413112 -0.123017,0 -0.164023,-0.247867 -0.164023,-0.413112 -0.49207,-4.626859 -0.943133,-13.136973 -1.353191,-17.309409 -0.123017,-0.619668 -0.164023,-0.743602 -2.33733,-0.743602 -2.050289,0 -2.337329,0 -2.255318,0.619668 1.394197,10.038632 2.8294,20.903487 3.649515,27.595908 0.08201,0.702291 0.49207,0.702291 2.378336,0.702291 1.763248,0 2.173307,0 2.255318,-0.619668 0.943133,-7.353401 2.665376,-17.557278 4.100579,-27.637218 0.08201,-0.578359 -0.246034,-0.61967 -2.255319,-0.61967 -1.968277,0 -2.091295,0 -2.173306,0.702291 z M 39.153294,49.537933 c 0,-6.279309 0,-10.121254 0,-16.400563 0,-1.776382 -0.49207,-3.428832 -1.681238,-4.544235 -1.271179,-1.198026 -3.075434,-1.693761 -4.838683,-1.693761 -1.107156,0 -3.198451,0 -4.182589,0 -0.533077,0 -0.820117,-0.04131 -1.066152,0.247868 -0.164023,0.206556 -0.164023,0.578356 -0.164023,1.032781 0,8.01438 0,18.176944 0,26.356569 0,0.413112 0,0.784914 0.164023,0.99147 0.164023,0.330491 0.492069,0.289179 1.025145,0.289179 1.066151,0 2.91141,0 4.264601,0 1.517215,0 3.403482,-0.413112 4.715667,-1.776383 1.394196,-1.445894 1.763249,-2.974409 1.763249,-4.502925 z M 34.724668,34.004907 c 0,5.535706 0,9.171094 0,14.706801 0,0.619669 0.041,1.32196 -0.451063,2.024251 -0.451064,0.578357 -1.066151,0.743601 -1.55822,0.743601 -0.369053,0 -0.820116,0.04131 -0.943133,-0.08262 -0.164023,-0.165246 -0.164023,-0.454424 -0.164023,-0.826225 0,-6.32062 0,-12.145505 0,-18.590058 0,-0.247867 0,-0.413112 0.123017,-0.578357 0.123017,-0.165245 0.451064,-0.165245 1.107156,-0.165245 0.738105,0 1.025145,0.165245 1.353191,0.495735 0.49207,0.619669 0.533075,1.404581 0.533075,2.272117 z M 11.39085,55.404129 c 0.20503,-2.396052 0.369053,-3.924569 0.615086,-6.237998 0.041,-0.413112 0.451065,-0.33049 1.230175,-0.33049 0.656093,0 1.148161,-0.08262 1.189168,0.33049 0.328046,2.272118 0.492069,3.841946 0.820116,6.155375 0.08201,0.578358 0.861121,0.495735 2.050288,0.495735 1.107158,0 2.33733,0.04131 2.255319,-0.413112 -1.640231,-10.782234 -2.542359,-17.226787 -4.141585,-27.802464 -0.08201,-0.702291 -1.189167,-0.743602 -2.214312,-0.743602 -0.902126,0 -2.050289,0.04131 -2.132301,0.619668 -1.3531904,9.956009 -2.4193408,17.185476 -3.936555,27.967709 -0.041006,0.371801 1.3941968,0.371801 2.0092837,0.371801 1.3121853,0 2.2143113,0.04131 2.2553173,-0.413112 z m 0.984139,-9.997321 c 0.164023,-2.643918 0.328046,-4.70948 0.533076,-7.931757 0,-0.165245 0.082,-1.198027 0.28704,-1.198027 0.28704,0 0.369052,0.908849 0.369052,1.115404 0.205029,3.263589 0.328047,4.998661 0.533075,8.055693 0.041,0.3718 -0.369052,0.289178 -0.902127,0.289178 -0.615086,0 -0.861122,-0.04131 -0.820116,-0.330491 z" />
        </g>
        <g
           aria-label="PARENTAL"
           transform="scale(0.99648872,1.0035237)"
           style="font-style:normal;font-variant:normal;font-weight:normal;font-stretch:normal;font-size:20.36556244px;line-height:0.25;font-family:'Garage GothicBlack';-inkscape-font-specification:'Garage GothicBlack';text-align:start;letter-spacing:0px;word-spacing:0px;text-anchor:start;fill:#000000;fill-opacity:1;stroke:none;stroke-width:1.5274173"
           id="text33" />
        <g
           aria-label="EXPLICIT CONTENT"
           style="font-style:normal;font-variant:normal;font-weight:normal;font-stretch:normal;font-size:21.64652824px;line-height:0.25;font-family:'Garage GothicBlack';-inkscape-font-specification:'Garage GothicBlack';text-align:start;letter-spacing:0px;word-spacing:0px;text-anchor:start;fill:#ffffff;fill-opacity:1;stroke:none;stroke-width:1.62348962"
           id="text54"
           transform="matrix(0.87554331,0,0,1,1.2342498,0)">
          <path
             id="path84"
             style="font-style:normal;font-variant:normal;font-weight:bold;font-stretch:normal;font-family:'Garage Gothic';-inkscape-font-specification:'Garage Gothic Bold';stroke-width:1.6269269;fill:#ffffff"
             d="m 152.14523,72.313128 c 0,4.782643 0,7.260922 0,12.021825 0,0.217393 0.19481,0.217393 1.10393,0.217393 1.01733,0 1.25543,-0.02174 1.25543,-0.217393 0,-4.760903 0,-7.217442 0,-12.021825 0,-0.28261 -0.0433,-0.652178 0.15152,-0.804353 0.10823,-0.04348 0.38963,-0.04348 0.62772,-0.04348 0.36798,0 0.67101,0 0.93076,0 0.2381,0 0.25975,-0.108696 0.25975,-1.108703 0,-0.826094 -0.0217,-1.021746 -0.2814,-1.021746 -1.36366,0 -4.35075,0 -5.71441,0 -0.25975,0 -0.30304,0.152174 -0.30304,1.065225 0,0.91305 0.0649,1.065224 0.38962,1.065224 0.19481,0 0.49785,0 0.80089,0 0.23809,0 0.51948,0 0.62772,0.04348 0.19481,0.152175 0.15151,0.521743 0.15151,0.804353 z m -9.67248,5.239168 c 0.75759,2.73915 1.01734,3.891333 1.73164,6.41309 0.15152,0.543481 0.38963,0.58696 0.95241,0.58696 1.10392,0 1.08227,-0.06522 1.08227,-0.630439 0,-5.434821 0,-10.695729 0,-14.217493 0,-0.347829 -0.0216,-0.369567 -1.12557,-0.369567 -1.08227,0 -1.1472,0.04348 -1.1472,0.391306 0,2.500018 0,4.326118 0,6.630482 0,0.239133 0,0.652179 -0.15153,0.652179 -0.12987,0 -0.21645,-0.347828 -0.25975,-0.565222 -0.671,-2.304364 -1.29873,-4.630467 -1.75328,-6.413088 -0.17317,-0.6087 -0.28139,-0.695657 -1.21215,-0.695657 -0.95241,0 -0.99569,0 -0.99569,0.304349 0,5.195689 0,9.108761 0,14.543583 0,0.326088 0,0.369567 1.08227,0.369567 1.12557,0 1.1905,-0.04348 1.1905,-0.391307 0,-2.978281 0,-4.326117 0,-7.152225 0,-0.282611 0,-0.739136 0.15153,-0.739136 0.15152,0 0.32468,0.804354 0.45455,1.282618 z m -12.22292,6.913093 c 0.15152,0.130436 0.51949,0.08696 0.86582,0.08696 0.93075,0 3.22518,0 4.15594,0 0.23809,0 0.25974,-0.08696 0.25974,-1.086964 0,-0.956528 -0.0216,-1.043485 -0.28138,-1.043485 -0.58444,0 -1.47191,0 -2.05633,0 -0.2381,0 -0.54114,-0.02174 -0.64937,-0.08696 -0.10822,-0.06522 -0.10822,-0.478265 -0.10822,-0.760876 0,-1.739142 0,-1.50001 0,-3.239154 0,-0.28261 -0.0433,-0.500003 0.15151,-0.630439 0.0866,-0.04348 0.32468,-0.06522 0.54114,-0.06522 0.38963,0 0.80089,0 0.97405,0 0.2814,0 0.2814,-0.130437 0.2814,-1.043486 0,-0.956529 -0.0216,-1.086964 -0.2814,-1.086964 -0.19481,0 -0.67101,0 -1.03898,0 -0.17316,0 -0.32469,0.02174 -0.47621,-0.08696 -0.17316,-0.130437 -0.12986,-0.369568 -0.12986,-0.565222 0,-1.456532 0,-1.413053 0,-2.869586 0,-0.282611 0,-0.260871 0.10822,-0.413046 0.0649,-0.08696 0.32469,-0.108697 0.49785,-0.108697 0.41126,0 1.58011,0 2.16455,0 0.28138,0 0.28138,-0.130436 0.28138,-1.108703 0,-0.847832 0,-1.021746 -0.25973,-1.021746 -1.19051,0 -3.29012,0 -4.48063,0 -0.21646,0 -0.36797,0 -0.49784,0.173914 -0.12988,0.173914 -0.15153,0.195653 -0.15153,0.478264 0,5.217428 0,8.5218 0,13.739228 0,0.260872 -0.0433,0.586962 0.12988,0.739136 z m -8.22471,-12.152261 c 0,4.782643 0,7.260922 0,12.021825 0,0.217393 0.19481,0.217393 1.10391,0.217393 1.01735,0 1.25545,-0.02174 1.25545,-0.217393 0,-4.760903 0,-7.217442 0,-12.021825 0,-0.28261 -0.0433,-0.652178 0.15151,-0.804353 0.10824,-0.04348 0.38962,-0.04348 0.62772,-0.04348 0.36797,0 0.67102,0 0.93076,0 0.23811,0 0.25975,-0.108696 0.25975,-1.108703 0,-0.826094 -0.0216,-1.021746 -0.28139,-1.021746 -1.36367,0 -4.35075,0 -5.71443,0 -0.25974,0 -0.30303,0.152174 -0.30303,1.065225 0,0.91305 0.0649,1.065224 0.38962,1.065224 0.19481,0 0.49785,0 0.80088,0 0.2381,0 0.5195,0 0.62772,0.04348 0.19481,0.152175 0.15153,0.521743 0.15153,0.804353 z m -9.56455,5.239168 c 0.75759,2.73915 1.01733,3.891333 1.73164,6.41309 0.15151,0.543481 0.38962,0.58696 0.9524,0.58696 1.10392,0 1.08227,-0.06522 1.08227,-0.630439 0,-5.434821 0,-10.695729 0,-14.217493 0,-0.347829 -0.0217,-0.369567 -1.12557,-0.369567 -1.08227,0 -1.1472,0.04348 -1.1472,0.391306 0,2.500018 0,4.326118 0,6.630482 0,0.239133 0,0.652179 -0.15153,0.652179 -0.12987,0 -0.21645,-0.347828 -0.25974,-0.565222 -0.67101,-2.304364 -1.29873,-4.630467 -1.75329,-6.413088 -0.17317,-0.6087 -0.28139,-0.695657 -1.21215,-0.695657 -0.9524,0 -0.99569,0 -0.99569,0.304349 0,5.195689 0,9.108761 0,14.543583 0,0.326088 0,0.369567 1.08228,0.369567 1.12556,0 1.19049,-0.04348 1.19049,-0.391307 0,-2.978281 0,-4.326117 0,-7.152225 0,-0.282611 0,-0.739136 0.15153,-0.739136 0.15152,0 0.32468,0.804354 0.45456,1.282618 z m -7.17713,3.869593 c 0,-3.239153 0,-5.78265 0,-8.978325 0,-1.891318 -1.29873,-3.108717 -3.16025,-3.108717 -1.79658,0 -3.138594,1.217399 -3.138594,3.108717 0,3.239154 0,5.717432 0,8.978325 0,1.782622 1.147204,3.130457 3.138594,3.130457 2.09963,0 3.16025,-1.304356 3.16025,-3.130457 z m -2.33772,-8.543539 c 0,2.804368 0,5.239168 0,8.065275 0,0.6087 -0.0649,1.304358 -0.82253,1.304358 -0.80088,0 -0.82253,-0.695658 -0.82253,-1.304358 0,-2.826107 0,-5.260907 0,-8.065275 0,-0.6087 0.17317,-1.304357 0.82253,-1.304357 0.62772,0 0.82253,0.695657 0.82253,1.304357 z m -10.03249,0.739136 c 0,0.282611 0.367974,0.239132 1.082276,0.239132 0.995694,0 1.168859,-0.06522 1.168859,-0.282611 0,-0.239132 0,-0.913049 0,-1.173922 0,-1.586967 -1.01734,-3.065238 -3.052021,-3.065238 -1.948097,0 -3.138601,1.391314 -3.138601,3.065238 0,3.260893 0,5.847868 0,9.108762 0,1.652185 1.190504,3.043499 3.138601,3.043499 2.013035,0 3.052021,-1.239139 3.052021,-3.043499 0,-0.282611 0,-0.804354 0,-1.130444 0,-0.391306 -0.19481,-0.413046 -1.103922,-0.413046 -0.952404,0 -1.147213,-0.02174 -1.147213,0.282611 0,0.500003 0,0.826093 0,1.130442 0,0.347829 -0.173165,0.869573 -0.800886,0.869573 -0.671011,0 -0.82253,-0.63044 -0.82253,-1.239141 0,-2.804367 0,-5.413081 0,-8.19571 0,-0.565221 0.151519,-1.239139 0.82253,-1.239139 0.562785,0 0.800886,0.6087 0.800886,0.913049 0,0.217394 0,0.826093 0,1.130444 z M 73.879975,72.313128 c 0,4.782643 0,7.260922 0,12.021825 0,0.217393 0.19481,0.217393 1.103922,0.217393 1.01734,0 1.255441,-0.02174 1.255441,-0.217393 0,-4.760903 0,-7.217442 0,-12.021825 0,-0.28261 -0.04329,-0.652178 0.151518,-0.804353 0.108228,-0.04348 0.38962,-0.04348 0.627721,-0.04348 0.367974,0 0.671011,0 0.930757,0 0.238101,0 0.259747,-0.108696 0.259747,-1.108703 0,-0.826094 -0.02165,-1.021746 -0.281392,-1.021746 -1.363668,0 -4.350751,0 -5.714421,0 -0.259746,0 -0.303037,0.152174 -0.303037,1.065225 0,0.91305 0.06494,1.065224 0.38962,1.065224 0.194809,0 0.497847,0 0.800884,0 0.238102,0 0.519494,0 0.627721,0.04348 0.19481,0.152175 0.151519,0.521743 0.151519,0.804353 z m -5.923062,11.869651 c 0,-5.521779 0,-10.956601 0,-14.456626 0,-0.347828 -0.06494,-0.369568 -1.212149,-0.369568 -1.01734,0 -1.103922,0.02174 -1.103922,0.347829 0,5.217428 0,9.065282 0,14.521844 0,0.304349 0.04329,0.304349 1.103922,0.304349 1.190504,0 1.212149,-0.02174 1.212149,-0.347828 z M 59.302924,73.617486 c 0,0.282611 0.367974,0.239132 1.082276,0.239132 0.995695,0 1.16886,-0.06522 1.16886,-0.282611 0,-0.239132 0,-0.913049 0,-1.173922 0,-1.586967 -1.017341,-3.065238 -3.052021,-3.065238 -1.948097,0 -3.138602,1.391314 -3.138602,3.065238 0,3.260893 0,5.847868 0,9.108762 0,1.652185 1.190505,3.043499 3.138602,3.043499 2.013034,0 3.052021,-1.239139 3.052021,-3.043499 0,-0.282611 0,-0.804354 0,-1.130444 0,-0.391306 -0.19481,-0.413046 -1.103923,-0.413046 -0.952404,0 -1.147213,-0.02174 -1.147213,0.282611 0,0.500003 0,0.826093 0,1.130442 0,0.347829 -0.173165,0.869573 -0.800885,0.869573 -0.671011,0 -0.82253,-0.63044 -0.82253,-1.239141 0,-2.804367 0,-5.413081 0,-8.19571 0,-0.565221 0.151519,-1.239139 0.82253,-1.239139 0.562784,0 0.800885,0.6087 0.800885,0.913049 0,0.217394 0,0.826093 0,1.130444 z m -8.210183,10.565293 c 0,-5.521779 0,-10.956601 0,-14.456626 0,-0.347828 -0.06494,-0.369568 -1.212149,-0.369568 -1.017341,0 -1.103923,0.02174 -1.103923,0.347829 0,5.217428 0,9.065282 0,14.521844 0,0.304349 0.04329,0.304349 1.103923,0.304349 1.190504,0 1.212149,-0.02174 1.212149,-0.347828 z M 40.75995,69.334847 c -0.974048,0 -1.082276,0.04348 -1.082276,0.347828 0,5.217429 0,8.760932 0,13.978361 0,0.282611 -0.02165,0.6087 0.108228,0.760874 0.108227,0.130436 0.411265,0.130436 0.714302,0.130436 0.606075,0 3.116957,0 4.155943,0 0.259746,0 0.281391,-0.06522 0.281391,-1.108703 0,-0.913051 -0.02165,-1.021746 -0.303037,-1.021746 -0.476202,0 -1.45025,0 -1.926452,0 -0.216455,0 -0.476202,-0.02174 -0.584429,-0.08696 -0.151519,-0.108697 -0.129873,-0.478265 -0.129873,-0.760876 0,-3.239154 0,-7.217442 0,-11.86965 0,-0.347829 -0.129874,-0.369567 -1.233797,-0.369567 z m -5.25671,6.130478 c 0,-2.108711 0,-0.717397 0,-2.847847 0,-1.086964 -0.324683,-1.913057 -1.060631,-2.521757 -0.649366,-0.543482 -1.515187,-0.760874 -2.381008,-0.760874 -0.58443,0 -1.688352,0 -2.207845,0 -0.259746,0 -0.432911,-0.02174 -0.541138,0.130435 -0.08659,0.108697 -0.108228,0.282611 -0.108228,0.543482 0,4.195682 0,9.760939 0,14.065318 0,0.478264 0.129873,0.478264 1.103922,0.478264 0.995695,0 1.212151,0.02174 1.212151,-0.347828 0,-1.282618 0,-3.630461 0,-4.739164 0,-0.543482 0.173164,-0.673918 0.476201,-0.673918 0.800885,0 1.731642,-0.173915 2.424299,-0.804354 0.82253,-0.760875 1.082277,-1.630447 1.082277,-2.521757 z m -2.337717,-2.391321 c 0,0.804353 0,1.260878 0,2.086971 0,0.413046 0.02165,0.739135 -0.259747,1.108703 -0.2381,0.282611 -0.541138,0.347829 -0.779239,0.347829 -0.216455,0 -0.367974,0 -0.476201,-0.02174 -0.151519,-0.06522 -0.129873,-0.239133 -0.129873,-0.456525 0,-2.130451 0,-1.956535 0,-4.130464 0,-0.130436 0,-0.217394 0.06494,-0.304351 0.08659,-0.08696 0.324683,-0.08696 0.584429,-0.08696 0.346329,0 0.541139,0.08696 0.714303,0.260872 0.259746,0.326089 0.281392,0.739135 0.281392,1.195661 z m -9.889026,3.63046 c 0,-0.195653 0.08659,-0.326089 0.173164,-0.63044 0.541139,-2.195667 1.060631,-4.217421 1.645061,-6.456567 0.08659,-0.260872 -0.08659,-0.28261 -1.168859,-0.28261 -1.082276,0 -1.125567,0 -1.168858,0.28261 -0.216456,1.326097 -0.476202,2.76089 -0.671013,3.847854 -0.02165,0.08696 -0.06494,0.28261 -0.173164,0.28261 -0.08659,0 -0.129873,-0.152175 -0.173164,-0.304349 -0.19481,-0.978268 -0.432911,-2.347843 -0.649366,-3.804376 -0.06494,-0.304349 -0.151519,-0.304349 -1.233795,-0.304349 -0.952403,0 -1.233795,0.02174 -1.168859,0.304349 0.627721,2.260886 1.168859,4.282639 1.731643,6.500047 0.06494,0.239132 0.129873,0.413046 0.129873,0.6087 z m -2.727337,0.04348 c 0,0.173914 -0.02165,0.30435 -0.108228,0.565222 -0.649366,2.4348 -1.190504,4.608728 -1.796579,6.869614 -0.08659,0.369567 0.151519,0.369567 1.125568,0.369567 1.038985,0 1.147213,-0.02174 1.212149,-0.326088 0.259747,-1.108704 0.519493,-2.45654 0.779239,-3.934812 0.02165,-0.173914 0.04329,-0.347828 0.173164,-0.347828 0.08659,0 0.129874,0.239132 0.151519,0.347828 0.259748,1.347836 0.541139,2.891325 0.77924,3.97829 0.08659,0.28261 0.216455,0.28261 1.190504,0.28261 1.01734,0 1.277086,-0.04348 1.190504,-0.30435 -0.62772,-2.326103 -1.212149,-4.521771 -1.861515,-6.97831 -0.08659,-0.239132 -0.108228,-0.391308 -0.108228,-0.565222 z m -10.490628,7.717445 c 0.151518,0.130436 0.519492,0.08696 0.865821,0.08696 0.930757,0 3.225184,0 4.155942,0 0.238101,0 0.259746,-0.08696 0.259746,-1.086964 0,-0.956528 -0.02165,-1.043485 -0.281391,-1.043485 -0.58443,0 -1.471896,0 -2.056326,0 -0.2381,0 -0.541138,-0.02174 -0.649365,-0.08696 -0.108228,-0.06522 -0.108228,-0.478265 -0.108228,-0.760876 0,-1.739142 0,-1.50001 0,-3.239154 0,-0.28261 -0.04329,-0.500003 0.151519,-0.630439 0.08659,-0.04348 0.324682,-0.06522 0.541138,-0.06522 0.389619,0 0.800884,0 0.974049,0 0.281391,0 0.281391,-0.130437 0.281391,-1.043486 0,-0.956529 -0.02165,-1.086964 -0.281391,-1.086964 -0.19481,0 -0.671012,0 -1.038986,0 -0.173164,0 -0.324683,0.02174 -0.476201,-0.08696 -0.173165,-0.130437 -0.129874,-0.369568 -0.129874,-0.565222 0,-1.456532 0,-1.413053 0,-2.869586 0,-0.282611 0,-0.260871 0.108228,-0.413046 0.06494,-0.08696 0.324683,-0.108697 0.497847,-0.108697 0.411265,0 1.580124,0 2.164553,0 0.281392,0 0.281392,-0.130436 0.281392,-1.108703 0,-0.847832 0,-1.021746 -0.259746,-1.021746 -1.190505,0 -3.290122,0 -4.480626,0 -0.216455,0 -0.367974,0 -0.497847,0.173914 -0.1298729,0.173914 -0.1515185,0.195653 -0.1515185,0.478264 0,5.217428 0,8.5218 0,13.739228 0,0.260872 -0.043291,0.586962 0.1298735,0.739136 z M 150.98915,7.1308948 c -1.62251,0 -1.62251,0.122624 -1.62251,0.4087465 0,4.9049577 0,8.2158047 0,13.1207617 0,0.245249 -0.0463,0.551808 0.13908,0.694869 0.16224,0.122625 0.55628,0.08175 0.92715,0.08175 0.99669,0 4.45033,0 5.44701,0 0.25498,0 0.27815,-0.02044 0.27815,-1.491924 0,-1.328427 -0.0232,-1.369301 -0.30132,-1.369301 -0.62583,0 -1.57617,0 -2.20199,0 -0.25497,0 -0.57947,-0.02044 -0.69537,-0.08175 -0.11589,-0.06132 -0.11589,-0.449622 -0.11589,-0.715307 0,-1.634986 0,-5.988136 0,-10.2390997 0,-0.3474345 -0.0927,-0.4087465 -1.85431,-0.4087455 z M 132.34797,21.232649 c 0.1159,-1.185365 0.18543,-1.675861 0.32451,-2.820351 0.0232,-0.204373 0.25497,-0.163498 0.69536,-0.163498 0.37086,0 0.57947,-0.04087 0.60265,0.163498 0.18543,1.124053 0.25497,1.634986 0.44039,2.779476 0.0463,0.286123 0.81127,0.245248 1.48345,0.245248 0.62583,0 1.87748,0.02043 1.83113,-0.204373 -1.08941,-5.354579 -1.71523,-8.522365 -2.71192,-13.7543196 -0.0695,-0.3474346 -1.11259,-0.3678719 -1.69206,-0.3678719 -0.50993,0 -1.71523,0.020437 -1.76159,0.3065599 -0.88079,5.2728296 -1.46026,8.4610526 -2.45695,13.8360696 -0.0232,0.183935 1.32119,0.183935 1.66887,0.183935 0.74173,0 1.55298,0.02043 1.57616,-0.204373 z m 0.50993,-5.088894 c 0.0695,-1.246676 0.16226,-1.859796 0.25497,-3.331284 0,-0.08175 0.0695,-0.980992 0.20861,-0.980992 0.16225,0 0.23179,0.776619 0.23179,0.878805 0.1159,1.614549 0.18543,2.227669 0.25497,3.453909 0,0.204372 -0.18544,0.14306 -0.50993,0.14306 -0.39405,0 -0.44041,0 -0.44041,-0.163498 z m -20.77906,-5.354579 c 0,4.496211 0,5.967699 0,10.443473 0,0.204373 0.13907,0.204373 1.6457,0.204373 1.71523,0 1.8543,-0.02044 1.8543,-0.204373 0,-4.475774 0,-5.926824 0,-10.443473 0,-0.265686 -0.0463,-0.61312 0.16225,-0.756181 0.1159,-0.040875 0.53312,-0.040875 0.88079,-0.040875 0.39405,0 0.71856,0 0.99669,0 0.25497,0 0.27815,-0.122624 0.27815,-1.5532367 0,-1.1649275 -0.0232,-1.3079888 -0.30132,-1.3079888 -1.46026,0 -6.02649,0 -7.48676,0 -0.27814,0 -0.3245,0.122624 -0.3245,1.4101755 0,1.267114 0.0695,1.45105 0.41722,1.45105 0.20861,0 0.53311,0 0.85761,0 0.32451,0 0.74173,0 0.85762,0.040875 0.20861,0.143061 0.16225,0.490495 0.16225,0.756181 z m -19.31988,4.88452 c 0.880795,2.615978 1.043047,3.310847 1.900662,5.456766 0.139074,0.347435 0.347683,0.30656 1.205299,0.30656 1.784768,0 1.715231,-0.02044 1.715231,-0.347435 0,-5.293267 0,-11.8740851 0,-13.5499457 0,-0.3678718 0.09271,-0.3883091 -1.715231,-0.3883091 -1.645696,0 -1.668875,0 -1.668875,0.3678718 0,1.9619831 0,3.269972 0,5.04802 0,0.306559 0.02318,0.83793 -0.18543,0.83793 -0.162252,0 -0.254967,-0.347435 -0.324503,-0.551809 -0.695365,-1.818922 -1.599339,-4.516648 -1.854305,-5.3137037 -0.115895,-0.3678718 -0.20861,-0.3883091 -1.529802,-0.3883091 -1.645695,0 -1.576159,0 -1.576159,0.3678718 0,4.904958 0,8.48149 0,13.611258 0,0.286123 -0.09271,0.30656 1.576159,0.30656 1.784768,0 1.807948,-0.02044 1.807948,-0.347435 0,-2.636414 0,-2.820351 0,-5.293267 0,-0.408746 -0.04636,-1.021866 0.162251,-1.021866 0.18543,0 0.370861,0.551808 0.486755,0.899242 z m -22.619608,5.681576 c 0.162252,0.122625 0.556291,0.08175 0.927152,0.08175 0.99669,0 4.450332,0 5.447022,0 0.254966,0 0.278144,-0.02044 0.278144,-1.491924 0,-1.328427 -0.02317,-1.369301 -0.301324,-1.369301 -0.625827,0 -1.576159,0 -2.201986,0 -0.254968,0 -0.579472,-0.02044 -0.695365,-0.08175 -0.115894,-0.06132 -0.115894,-0.449622 -0.115894,-0.715307 0,-1.634986 0,-0.06132 0,-1.696298 0,-0.265685 -0.04636,-0.470059 0.162252,-0.592682 0.09271,-0.04087 0.347681,-0.06132 0.57947,-0.06132 0.417218,0 0.857616,0 1.043046,0 0.301324,0 0.254967,-0.08175 0.254967,-1.389738 0,-1.369301 0.02318,-1.45105 -0.254967,-1.45105 -0.208609,0 -0.741722,0 -1.135761,0 -0.185431,0 -0.347683,0.02044 -0.509935,-0.08175 -0.18543,-0.122624 -0.139072,-0.347435 -0.139072,-0.53137 0,-1.369301 0,-0.122624 0,-1.491925 0,-0.265685 0,-0.245248 0.115894,-0.38831 0.06954,-0.08175 0.347682,-0.1021857 0.533113,-0.1021857 0.440397,0 1.692053,0 2.317881,0 0.301324,0 0.301324,-0.081749 0.301324,-1.5532367 0,-1.2466768 0,-1.3079888 -0.278146,-1.3079888 -1.274835,0 -4.496689,0 -5.771524,0 -0.231787,0 -0.394039,0 -0.533113,0.1634986 -0.139072,0.1634986 -0.162251,0.183936 -0.162251,0.4496212 0,4.9049584 0,8.0114314 0,12.9163884 0,0.245249 -0.04636,0.551808 0.139073,0.694869 z m -12.324013,-0.22481 c 0,-1.880234 0,-3.188223 0,-5.231955 0,-1.75761 -1.807947,-1.634986 -1.807947,-1.716735 0,-0.102187 1.715231,-0.224811 1.715231,-2.06417 0,-0.817493 0,-0.735744 0,-1.634986 0,-2.1050443 -1.622516,-3.3517212 -4.056291,-3.3517212 -0.764902,0 -2.665564,0 -3.268212,0 -0.672187,0 -0.695365,0 -0.695365,0.6131198 0,3.0451614 0,10.0347264 0,13.0798884 0,0.633556 0.231787,0.613119 1.599338,0.613119 1.599337,0 1.877483,0 1.877483,-0.449621 0,-2.329855 0,-2.820351 0,-5.150205 0,-0.265686 0.04636,-0.245249 0.579471,-0.245249 0.672185,0 0.57947,0.653995 0.57947,1.22624 0,0.224811 0,2.718164 0,4.210088 0,0.429184 0.04636,0.408747 1.715232,0.408747 1.622517,0 1.76159,0.02043 1.76159,-0.30656 z m -3.569537,-9.809916 c 0,0.224811 0,0.551808 0,0.83793 0,0.224811 -0.06954,0.674433 -0.57947,0.674433 -0.394041,0 -0.486756,0.02043 -0.486756,-0.245249 0,-0.858368 0,0.08175 0,-2.248105 0,-0.265685 0.06954,-0.245249 0.486756,-0.245249 0.672185,0 0.57947,0.653995 0.57947,1.22624 z m -21.68217,9.912103 c 0.115894,-1.185365 0.185431,-1.675861 0.324503,-2.820351 0.02318,-0.204373 0.254967,-0.163498 0.695365,-0.163498 0.370861,0 0.57947,-0.04087 0.602649,0.163498 0.18543,1.124053 0.254967,1.634986 0.440397,2.779476 0.04636,0.286123 0.811258,0.245248 1.483444,0.245248 0.625828,0 1.877484,0.02043 1.831126,-0.204373 C 36.851712,15.87807 36.225884,12.710284 35.229195,7.4783294 35.159655,7.1308948 34.116612,7.1104575 33.537142,7.1104575 c -0.509933,0 -1.715232,0.020437 -1.76159,0.3065599 -0.880794,5.2728296 -1.460265,8.4610526 -2.456953,13.8360696 -0.02318,0.183935 1.321192,0.183935 1.668874,0.183935 0.741722,0 1.55298,0.02043 1.576159,-0.204373 z m 0.509934,-5.088894 c 0.06954,-1.246676 0.162252,-1.859796 0.254967,-3.331284 0,-0.08175 0.06954,-0.980992 0.208609,-0.980992 0.162252,0 0.231789,0.776619 0.231789,0.878805 0.115893,1.614549 0.18543,2.227669 0.254966,3.453909 0,0.204372 -0.185431,0.14306 -0.509934,0.14306 -0.394039,0 -0.440397,0 -0.440397,-0.163498 z M 17.858504,13.180342 c 0,-2.983849 0,0.265686 0,-2.697726 0,-2.1050443 -1.622516,-3.3517212 -4.056292,-3.3517212 -0.764901,0 -2.758278,0 -3.360928,0 -0.6721853,0 -0.6953641,0 -0.6953641,0.6131198 0,3.0451614 0,10.0347264 0,13.0798884 0,0.633556 0.2086093,0.613119 1.6920531,0.613119 1.483444,0 1.784768,0.04087 1.784768,-0.347435 0,-0.592682 0,-3.065598 0,-3.699156 0,-0.756181 0.20861,-0.858367 0.579471,-0.858367 2.433776,0 4.056292,-1.246677 4.056292,-3.351722 z m -3.476821,-1.859796 c 0,0.510933 0,0.715307 0,1.22624 0,0.572245 0.09271,1.22624 -0.579471,1.22624 -0.602649,0 -0.579471,0.02043 -0.579471,-0.245249 0,-2.329854 0,-0.858368 0,-3.188222 0,-0.265685 -0.02317,-0.245249 0.579471,-0.245249 0.672186,0 0.579471,0.653995 0.579471,1.22624 z" />
        </g>
      </g>
    </g>
  </g>
</svg>
